<?xml version="1.0" encoding="UTF-8"?><svg id="Ebene_1" xmlns="http://www.w3.org/2000/svg" viewBox="0 0 467.94 244.25"><defs><style>.cls-1{fill:#f5ab4d;}.cls-2{fill:#f08700;}.cls-3{font-family:Sora-Regular, Sora;font-size:67.29px;}</style></defs><g><rect class="cls-1" x="203.33" y=".64" width="61.33" height="15.68"/><polygon class="cls-1" points="225.25 81.91 225.25 25.38 243.86 19.4 243.86 75.93 225.25 81.91"/><path class="cls-2" d="M100.3,78.5h18.13L91.77,.64h-28.26l-25.7,77.86h17.49l6.16-19.3h32.52l6.32,19.3Zm-34.21-33.81l9.5-29.76h3.9l9.74,29.76h-23.14Z"/><path class="cls-2" d="M197.09,23.73c-1.74-4.59-4.4-8.65-7.95-12.21-3.56-3.55-7.97-6.36-13.23-8.43C170.66,1.03,164.51,0,157.47,0h-11.41S128.57,0,128.57,0V78.92h17.49s11.41,0,11.41,0c7.04,0,13.19-1.1,18.45-3.31,5.26-2.2,9.67-5.13,13.23-8.8,3.55-3.66,6.2-7.79,7.95-12.37,1.74-4.59,2.61-9.23,2.61-13.92v-2.34c0-5.05-.87-9.87-2.61-14.45Zm-16.7,25.17c-1.06,2.88-2.63,5.33-4.69,7.36-2.06,2.03-4.55,3.59-7.46,4.69-2.92,1.1-6.19,1.65-9.81,1.65h-12.37V16.32h12.37c3.62,0,6.9,.52,9.81,1.54,2.91,1.03,5.4,2.54,7.46,4.53,2.06,1.99,3.63,4.41,4.69,7.25,1.07,2.85,1.6,6.08,1.6,9.71s-.54,6.67-1.6,9.55Z"/><polygon class="cls-2" points="315.31 34.34 341.87 .64 321.82 .64 293.13 37.11 293.13 .64 275.63 .64 275.63 78.5 293.13 78.5 293.13 42.13 299.95 42.13 326.83 78.5 347.95 78.5 315.31 34.34"/><path class="cls-2" d="M424.37,23.73c-1.74-4.59-4.4-8.65-7.95-12.21-3.56-3.55-7.97-6.36-13.23-8.43C397.93,1.03,391.78,0,384.74,0h-11.41S355.84,0,355.84,0V78.92h17.49s11.41,0,11.41,0c7.04,0,13.19-1.1,18.45-3.31,5.26-2.2,9.67-5.13,13.23-8.8,3.55-3.66,6.2-7.79,7.95-12.37,1.74-4.59,2.61-9.23,2.61-13.92v-2.34c0-5.05-.87-9.87-2.61-14.45Zm-16.7,25.17c-1.06,2.88-2.63,5.33-4.69,7.36-2.06,2.03-4.55,3.59-7.46,4.69-2.92,1.1-6.19,1.65-9.81,1.65h-12.37V16.32h12.37c3.62,0,6.89,.52,9.81,1.54,2.91,1.03,5.4,2.54,7.46,4.53,2.06,1.99,3.63,4.41,4.69,7.25,1.07,2.85,1.6,6.08,1.6,9.71s-.54,6.67-1.6,9.55Z"/></g><g><polygon points="75.43 176.02 61.88 219.22 59.4 219.22 44.68 176.02 37.88 176.02 54.91 225.14 66.21 225.14 82.03 176.02 75.43 176.02"/><g><path d="M92.86,183.42c1.44,0,2.5-.38,3.2-1.14,.7-.76,1.04-1.73,1.04-2.89s-.35-2.13-1.04-2.89c-.7-.76-1.76-1.14-3.2-1.14s-2.5,.38-3.2,1.14c-.7,.76-1.04,1.73-1.04,2.89s.35,2.13,1.04,2.89c.7,.76,1.76,1.14,3.2,1.14Z"/><polygon points="91.04 189.21 85.52 189.21 85.52 194.32 91.04 194.32 91.04 225.14 97.5 225.14 97.5 194.32 97.5 189.21 91.04 189.21"/></g><path d="M121.79,226.22c-4.71,0-8.36-1.01-10.93-3.03-2.58-2.02-3.91-4.78-4-8.28h6.06c.09,1.39,.8,2.7,2.12,3.94,1.32,1.23,3.58,1.85,6.76,1.85,2.87,0,5.07-.57,6.59-1.72,1.52-1.14,2.29-2.55,2.29-4.21,0-1.48-.56-2.63-1.68-3.47-1.12-.83-2.94-1.38-5.45-1.65l-3.9-.4c-3.41-.36-6.19-1.38-8.34-3.06-2.15-1.68-3.23-4.05-3.23-7.1,0-2.29,.58-4.25,1.75-5.89,1.17-1.64,2.78-2.89,4.84-3.77,2.06-.88,4.44-1.31,7.13-1.31,4.04,0,7.31,.9,9.82,2.69,2.51,1.8,3.81,4.46,3.9,8.01h-6.06c-.05-1.44-.71-2.66-1.98-3.67-1.28-1.01-3.17-1.51-5.69-1.51s-4.42,.52-5.72,1.55c-1.3,1.03-1.95,2.33-1.95,3.9,0,1.35,.46,2.42,1.38,3.23,.92,.81,2.43,1.32,4.54,1.55l3.9,.4c3.86,.4,6.95,1.47,9.29,3.2,2.33,1.73,3.5,4.16,3.5,7.3,0,2.24-.64,4.23-1.92,5.96-1.28,1.73-3.04,3.07-5.28,4.04-2.24,.96-4.82,1.45-7.74,1.45Z"/><g><path d="M149.65,183.42c1.44,0,2.5-.38,3.2-1.14,.7-.76,1.04-1.73,1.04-2.89s-.35-2.13-1.04-2.89c-.7-.76-1.76-1.14-3.2-1.14s-2.5,.38-3.2,1.14c-.7,.76-1.04,1.73-1.04,2.89s.35,2.13,1.04,2.89c.7,.76,1.76,1.14,3.2,1.14Z"/><polygon points="147.83 189.21 142.32 189.21 142.32 194.32 147.83 194.32 147.83 225.14 154.29 225.14 154.29 194.32 154.29 189.21 147.83 189.21"/></g><path d="M183.36,226.35c-3.14,0-5.9-.54-8.28-1.62-2.38-1.08-4.38-2.5-6.02-4.27-1.64-1.77-2.87-3.76-3.7-5.96-.83-2.2-1.25-4.44-1.25-6.73v-1.21c0-2.29,.43-4.54,1.28-6.76,.85-2.22,2.11-4.22,3.77-5.99,1.66-1.77,3.68-3.18,6.06-4.24,2.38-1.05,5.09-1.58,8.14-1.58s5.76,.53,8.14,1.58c2.38,1.05,4.4,2.47,6.06,4.24,1.66,1.77,2.92,3.77,3.77,5.99,.85,2.22,1.28,4.47,1.28,6.76v1.21c0,2.29-.42,4.53-1.24,6.73-.83,2.2-2.06,4.18-3.7,5.96-1.64,1.77-3.64,3.2-6.02,4.27-2.38,1.08-5.14,1.62-8.28,1.62Zm0-5.79c2.69,0,4.99-.59,6.9-1.78,1.91-1.19,3.36-2.79,4.37-4.81,1.01-2.02,1.51-4.28,1.51-6.8s-.52-4.84-1.55-6.86c-1.03-2.02-2.5-3.61-4.41-4.78-1.91-1.17-4.18-1.75-6.83-1.75s-4.87,.58-6.8,1.75c-1.93,1.17-3.41,2.76-4.44,4.78-1.03,2.02-1.55,4.31-1.55,6.86s.5,4.78,1.51,6.8c1.01,2.02,2.47,3.62,4.37,4.81,1.91,1.19,4.21,1.78,6.9,1.78Z"/><path d="M239.11,192.37c-2.18-2.83-5.53-4.24-10.06-4.24h-.27c-3.01,0-5.5,.64-7.47,1.92s-3.44,3.14-4.41,5.58c-.24,.62-.46,1.28-.64,1.97v-8.39h-5.11v35.93h6.46v-21.47c0-2.92,.88-5.25,2.62-7,1.75-1.75,4.04-2.62,6.86-2.62s4.89,.84,6.46,2.52c1.57,1.68,2.36,3.91,2.36,6.7v21.87h6.46v-20.52c0-5.34-1.09-9.42-3.26-12.25Z"/><path d="M292.98,226.35c-4.49,0-8.31-.79-11.47-2.36-3.16-1.57-5.71-3.61-7.64-6.12-1.93-2.51-3.34-5.24-4.24-8.18-.9-2.94-1.35-5.77-1.35-8.51v-1.48c0-2.96,.46-5.92,1.38-8.88,.92-2.96,2.34-5.65,4.27-8.07,1.93-2.42,4.44-4.37,7.54-5.85,3.1-1.48,6.8-2.22,11.1-2.22s8.16,.76,11.3,2.29c3.14,1.53,5.63,3.66,7.47,6.39,1.84,2.74,2.96,5.97,3.36,9.69h-6.73c-.36-2.78-1.26-5.08-2.69-6.9-1.44-1.82-3.24-3.17-5.42-4.07-2.18-.9-4.61-1.35-7.3-1.35-2.92,0-5.47,.5-7.67,1.51-2.2,1.01-4.03,2.42-5.48,4.24-1.46,1.82-2.56,3.91-3.3,6.29-.74,2.38-1.11,4.96-1.11,7.74s.37,5.16,1.11,7.54,1.86,4.49,3.36,6.33c1.5,1.84,3.38,3.29,5.62,4.34,2.24,1.05,4.87,1.58,7.87,1.58,4.22,0,7.76-1.05,10.63-3.16,2.87-2.11,4.62-5.16,5.25-9.15h6.73c-.45,3.36-1.58,6.44-3.4,9.22-1.82,2.78-4.33,5-7.54,6.66-3.21,1.66-7.1,2.49-11.67,2.49Z"/><path d="M347.48,189.14v21.47c0,3.01-.85,5.37-2.56,7.1-1.71,1.73-3.9,2.59-6.59,2.59s-4.67-.8-6.19-2.39c-1.53-1.59-2.29-3.8-2.29-6.63v-22.14h-6.46v20.86c0,5.25,1.14,9.26,3.43,12.04,2.29,2.78,5.56,4.17,9.82,4.17h.27c2.87,0,5.24-.64,7.1-1.92,1.86-1.28,3.26-3.14,4.21-5.59,.23-.6,.43-1.23,.61-1.9v8.32h5.11v-36h-6.46Z"/><path d="M366.45,225.14v-35.93h5.11v14.8h-.27c0-5.25,1.15-9.09,3.47-11.54,2.31-2.44,5.78-3.67,10.4-3.67h1.21v5.79h-2.29c-3.59,0-6.35,.95-8.28,2.86-1.93,1.91-2.89,4.66-2.89,8.24v19.45h-6.46Z"/><path d="M426.07,205.49c0-3-.62-5.83-1.85-8.48-1.23-2.65-3.12-4.81-5.65-6.49-2.53-1.68-5.75-2.52-9.66-2.52-3.01,0-5.62,.53-7.84,1.58-2.22,1.05-4.05,2.47-5.48,4.24-1.44,1.77-2.5,3.76-3.2,5.96-.7,2.2-1.04,4.46-1.04,6.8v1.21c0,2.29,.35,4.53,1.04,6.73,.7,2.2,1.76,4.18,3.2,5.96,1.43,1.77,3.3,3.2,5.58,4.27,2.29,1.08,5,1.62,8.14,1.62,2.83,0,5.36-.47,7.6-1.41,2.24-.94,4.1-2.31,5.58-4.1,1.48-1.79,2.47-3.93,2.96-6.39h-6.06c-.36,1.66-1.42,3.12-3.2,4.37-1.77,1.26-4.07,1.88-6.9,1.88s-4.91-.59-6.66-1.78c-1.75-1.19-3.04-2.8-3.87-4.84-.7-1.71-1.08-3.61-1.19-5.69h28.48v-2.89Zm-23.52-10.09c1.68-1.17,3.8-1.75,6.36-1.75s4.51,.52,6.12,1.55,2.83,2.48,3.63,4.34c.52,1.19,.85,2.53,1.03,4h-21.86c.21-1.2,.52-2.33,.95-3.36,.83-2.02,2.09-3.61,3.77-4.78Z"/><text class="cls-3" transform="translate(428.63 225.14)"><tspan x="0" y="0"> </tspan></text></g><path class="cls-2" d="M445.6,159.83c-9.15-10.62-19.13-20.14-31.23-27.04-29.12-16.74-64.74-14.44-94.85-.31-19.24,8.06-37.99,19.7-58.86,24.21-10.97,2.41-22,2.98-32.69,2.79-15.99-.1-33.33-2.73-48.07-9.92-18.72-9.14-35.53-21.03-54.8-28.62-39.01-15.48-80.98-5.82-111.42,22.54,0,0-2.79,2.61-2.79,2.61-.92,.88-1.8,1.8-2.7,2.7-1.95,1.71-3.24,3.99-5.52,5.35-.9,.48-2.04,.12-2.48-.81-.22-.44-.23-.94-.09-1.37,.45-1.33,1.44-2.22,2.26-3.25,.83-1.02,1.71-2,2.6-2.96,1.37-1.63,3.9-4.15,5.43-5.73,31.2-31.7,75.9-43.32,118.19-28.62,19.72,6.74,37.7,18.13,56.51,26.41,13.65,5.84,27.83,7.27,42.84,6.8,10-.24,19.77-1.22,28.96-3.66,19.63-5.27,36.1-17.1,54.59-25.81,9.81-4.95,20.11-9.25,30.8-11.96,44.84-12.47,95.06,3.47,123.02,40.8,9.42,13.35-8.66,27.93-19.71,15.83h0Z"/></svg>